HIERARCHY
ROOT hip
{
  OFFSET 0 0 0
  CHANNELS 6 Xposition Yposition Zposition Zrotation Yrotation Xrotation
  JOINT abdomen
  {
    OFFSET 0 20.6881 -0.73152
    CHANNELS 3 Zrotation Xrotation Yrotation
    JOINT chest
    {
      OFFSET 0 11.7043 -0.48768
      CHANNELS 3 Zrotation Xrotation Yrotation
      JOINT neck
      {
        OFFSET 0 22.1894 -2.19456
        CHANNELS 3 Zrotation Xrotation Yrotation
        JOINT head
        {
          OFFSET -0.24384 7.07133 1.2192
          CHANNELS 3 Zrotation Xrotation Yrotation
          JOINT leftEye
          {
            OFFSET 4.14528 8.04674 8.04672
            CHANNELS 3 Zrotation Xrotation Yrotation
            End Site
            {
              OFFSET 1 0 0
            }
          }
          JOINT rightEye
          {
            OFFSET -3.6576 8.04674 8.04672
            CHANNELS 3 Zrotation Xrotation Yrotation
            End Site
            {
              OFFSET 1 0 0
            }
          }
        }
      }
      JOINT rCollar
      {
        OFFSET -2.68224 19.2634 -4.8768
        CHANNELS 3 Zrotation Xrotation Yrotation
        JOINT rShldr
        {
          OFFSET -8.77824 -1.95073 1.46304
          CHANNELS 3 Zrotation Xrotation Yrotation
          JOINT rForeArm
          {
            OFFSET -28.1742 -1.7115 0.48768
            CHANNELS 3 Zrotation Xrotation Yrotation
            JOINT rHand
            {
              OFFSET -22.5879 0.773209 7.07136
              CHANNELS 3 Zrotation Xrotation Yrotation
              JOINT rThumb1
              {
                OFFSET -1.2192 -0.487915 3.41376
                CHANNELS 3 Zrotation Xrotation Yrotation
                JOINT rThumb2
                {
                  OFFSET -3.37035 -0.52449 3.41376
                  CHANNELS 3 Zrotation Xrotation Yrotation
                  End Site
                  {
                    OFFSET -1.78271 -1.18214 1.43049
                  }
                }
              }
              JOINT rIndex1
              {
                OFFSET -7.75947 0.938293 5.60832
                CHANNELS 3 Zrotation Xrotation Yrotation
                JOINT rIndex2
                {
                  OFFSET -2.54057 -0.884171 1.56538
                  CHANNELS 3 Zrotation Xrotation Yrotation
                  End Site
                  {
                    OFFSET -1.62519 -0.234802 1.16502
                  }
                }
              }
              JOINT rMid1
              {
                OFFSET -8.24714 1.18213 3.41376
                CHANNELS 3 Zrotation Xrotation Yrotation
                JOINT rMid2
                {
                  OFFSET -3.10165 -0.590103 1.0647
                  CHANNELS 3 Zrotation Xrotation Yrotation
                  End Site
                  {
                    OFFSET -2.48547 -0.328903 0.83742
                  }
                }
              }
              JOINT rRing1
              {
                OFFSET -8.82822 0.546677 1.51678
                CHANNELS 3 Zrotation Xrotation Yrotation
                JOINT rRing2
                {
                  OFFSET -2.60934 -0.819778 -0.0198488
                  CHANNELS 3 Zrotation Xrotation Yrotation
                  End Site
                  {
                    OFFSET -2.33842 -0.294052 0.168128
                  }
                }
              }
              JOINT rPinky1
              {
                OFFSET -8.27202 -0.0477905 -0.4584
                CHANNELS 3 Zrotation Xrotation Yrotation
                JOINT rPinky2
                {
                  OFFSET -1.82734 -0.647385 -0.700984
                  CHANNELS 3 Zrotation Xrotation Yrotation
                  End Site
                  {
                    OFFSET -1.69225 -0.51767 -0.607171
                  }
                }
              }
            }
          }
        }
      }
      JOINT lCollar
      {
        OFFSET 2.68224 19.2634 -4.8768
        CHANNELS 3 Zrotation Xrotation Yrotation
        JOINT lShldr
        {
          OFFSET 8.77824 -1.95073 1.46304
          CHANNELS 3 Zrotation Xrotation Yrotation
          JOINT lForeArm
          {
            OFFSET 28.1742 -1.7115 0.48768
            CHANNELS 3 Zrotation Xrotation Yrotation
            JOINT lHand
            {
              OFFSET 22.5879 0.773209 7.07136
              CHANNELS 3 Zrotation Xrotation Yrotation
              JOINT lThumb1
              {
                OFFSET 1.2192 -0.487915 3.41376
                CHANNELS 3 Zrotation Xrotation Yrotation
                JOINT lThumb2
                {
                  OFFSET 3.37035 -0.52449 3.41376
                  CHANNELS 3 Zrotation Xrotation Yrotation
                  End Site
                  {
                    OFFSET 1.78271 -1.18214 1.43049
                  }
                }
              }
              JOINT lIndex1
              {
                OFFSET 7.75947 0.938293 5.60832
                CHANNELS 3 Zrotation Xrotation Yrotation
                JOINT lIndex2
                {
                  OFFSET 2.54057 -0.884171 1.56538
                  CHANNELS 3 Zrotation Xrotation Yrotation
                  End Site
                  {
                    OFFSET 1.62519 -0.234802 1.16502
                  }
                }
              }
              JOINT lMid1
              {
                OFFSET 8.24714 1.18213 3.41376
                CHANNELS 3 Zrotation Xrotation Yrotation
                JOINT lMid2
                {
                  OFFSET 3.10165 -0.590103 1.0647
                  CHANNELS 3 Zrotation Xrotation Yrotation
                  End Site
                  {
                    OFFSET 2.48547 -0.328903 0.83742
                  }
                }
              }
              JOINT lRing1
              {
                OFFSET 8.82822 0.546677 1.51678
                CHANNELS 3 Zrotation Xrotation Yrotation
                JOINT lRing2
                {
                  OFFSET 2.60934 -0.819778 -0.0198488
                  CHANNELS 3 Zrotation Xrotation Yrotation
                  End Site
                  {
                    OFFSET 2.33842 -0.294052 0.168128
                  }
                }
              }
              JOINT lPinky1
              {
                OFFSET 8.27202 -0.0477905 -0.4584
                CHANNELS 3 Zrotation Xrotation Yrotation
                JOINT lPinky2
                {
                  OFFSET 1.82734 -0.647385 -0.700984
                  CHANNELS 3 Zrotation Xrotation Yrotation
                  End Site
                  {
                    OFFSET 1.69225 -0.51767 -0.607171
                  }
                }
              }
            }
          }
        }
      }
    }
  }
  JOINT rButtock
  {
    OFFSET -8.77824 4.35084 1.2192
    CHANNELS 3 Zrotation Xrotation Yrotation
    JOINT rThigh
    {
      OFFSET 0 -1.70687 -2.19456
      CHANNELS 3 Zrotation Xrotation Yrotation
      JOINT rShin
      {
        OFFSET 0 -36.8199 0.73152
        CHANNELS 3 Zrotation Xrotation Yrotation
        JOINT rFoot
        {
          OFFSET 0.73152 -45.1104 -5.12064
          CHANNELS 3 Zrotation Xrotation Yrotation
          End Site
          {
            OFFSET -1.1221 -3.69964 12.103
          }
        }
      }
    }
  }
  JOINT lButtock
  {
    OFFSET 8.77824 4.35084 1.2192
    CHANNELS 3 Zrotation Xrotation Yrotation
    JOINT lThigh
    {
      OFFSET 0 -1.70687 -2.19456
      CHANNELS 3 Zrotation Xrotation Yrotation
      JOINT lShin
      {
        OFFSET 0 -36.8199 0.73152
        CHANNELS 3 Zrotation Xrotation Yrotation
        JOINT lFoot
        {
          OFFSET -0.73152 -45.1104 -5.12064
          CHANNELS 3 Zrotation Xrotation Yrotation
          End Site
          {
            OFFSET 1.1221 -3.69964 12.103
          }
        }
      }
    }
  }
}
MOTION
Frames:	5
Frame Time:	0.03333
-6.5303 60.6881 -0.9117 174.315031 17.220509 -179.358825 -8.661465 9.718775 -106.175064 5.511993 5.270237 89.933396 -12.981525 36.768712 -111.67296 39.919333 26.511468 53.229869 5.506668 -0.464158 -9.628828 0.461434 -0.001414 -0.351045 4.412848 -44.794442 -7.833478 37.255434 -10.618196 -35.20109 -172.434207 -46.049095 109.749571 156.707045 -37.754389 138.161277 4.57621 -7.242224 -0.367128 0.784784 2.139104 1.962189 -110.026525 36.683594 93.084245 -73.288377 55.779715 49.921527 0.77639 -10.842325 -3.268281 -150.71903 14.099946 138.111951 -145.757058 -9.830517 -172.197303 -155.635728 20.343484 -178.174099 -14.542024 -26.723238 -12.463215 -155.025163 52.907351 -156.390988 11.193799 34.38835 -12.800996 69.297671 28.102702 -127.796913 67.518512 -40.776752 68.300214 -21.738362 -40.790874 -13.405478 97.250073 37.642573 -50.678204 -95.227275 -45.678096 -30.727994 13.431383 9.433846 -5.597905 -91.617758 -61.642744 -36.863882 159.160917 4.298963 -141.098218 57.018304 60.284371 -52.071782 69.258866 -71.666345 90.242283 -78.69339 -85.323894 -56.633717 145.806627 10.80801 144.106076 -0.282136 61.278126 -30.061085 1.97375 5.199934 -2.708013 -60.946693 -66.958412 117.076419 28.001984 -68.351683 -136.215268 94.828224 -24.29567 -7.570001 -112.553743 65.878453 -38.347079 94.80685 67.747592 -94.450353 -5.679188 -43.816904 69.610444 -131.946709 50.492156 -138.326395
-6.5550999999999995 60.834999999999994 -0.8463 174.412675 17.111963 -179.711502 -10.7998 8.469174 -180.0 -5.927447 5.22252 164.578249 -12.023177 38.494194 -122.332053 36.788209 32.937938 63.528891 5.713312 -0.430464 -8.610426 1.103029 -0.005112 -0.531015 -0.670948 -0.290548 0.795585 -109.701064 -26.706556 -178.768222 -173.228509 21.245088 -143.940687 -7.124653 32.249634 2.854569 -169.568719 -5.168753 89.924035 -15.395738 -49.925793 -0.854461 140.620498 -78.148729 87.894582 -158.533103 -27.222902 117.181089 -161.68844 -4.103536 145.002905 -163.412098 7.703669 144.235982 -70.988604 76.487142 87.971997 -161.226999 -6.779666 178.0439 21.930386 80.349887 15.294631 -1.655845 0.925341 -6.222854 -3.079707 -26.126164 3.851658 -172.698893 77.219094 100.833758 -135.185098 6.534643 -147.545836 175.323567 37.694794 -146.957621 -12.062901 -18.58524 -1.073207 130.133234 -56.451406 -153.834807 0.149536 -9.684455 1.644852 0.0029 20.175572 -4.257694 162.301557 -6.404806 -143.195229 -164.669266 -63.532645 -127.774313 139.639734 -1.289568 178.095741 139.085344 -37.439319 177.388823 146.793479 11.671214 144.721196 17.683746 -44.95229 10.428315 0.449444 6.04123 -4.262699 -52.15822 -67.573518 -54.318064 -10.740077 74.340998 108.167525 -9.507345 -8.261376 -85.471213 -7.525898 3.988022 -12.391972 9.82975 8.114059 129.166791 48.062165 -11.983207 107.92558 65.310536 33.571932 158.166847
-6.6038 60.988200000000006 -0.6811 174.229495 17.272864 -179.326672 -9.248496 11.506127 -73.339636 9.746289 1.623007 57.231655 6.575355 29.584232 94.976275 -36.413293 10.482097 -144.754668 7.893487 -0.552612 -7.996759 -4.260823 0.136393 -3.665253 -156.241729 -3.098013 161.056764 -53.038024 22.40191 12.308722 21.29541 -28.594944 -61.666271 166.4284 -19.01139 145.920552 -3.527204 2.901995 -0.915095 -128.016817 -29.528698 109.250702 -84.389776 45.213928 69.931146 173.111298 -40.064466 108.376932 0.857082 0.330821 -0.106779 -169.127181 -23.732882 146.956543 -46.38346 73.571732 62.289486 4.593855 0.500852 -3.698298 -1.219809 -9.671084 -2.80575 -137.634885 -35.088828 -129.187827 82.198898 66.943621 -84.833194 -62.528514 -17.703815 -83.545662 23.02306 -7.289969 -20.2944 -3.794761 -0.892007 -2.228504 179.385986 -10.892508 -89.326602 -108.430594 -54.958655 -86.013634 14.164829 13.736619 -8.201419 168.071381 -19.518479 -112.054694 153.855146 13.465874 -138.093966 162.586709 -5.28492 -141.270228 138.866097 4.506984 -177.556964 141.24706 -0.09904 -176.918718 41.208731 84.868743 -82.254033 45.481502 -57.566158 58.752735 -137.960995 67.847445 -24.909012 144.347933 -5.913689 -5.036707 -50.090776 69.062395 166.95456 -2.389156 43.002757 -90.645919 3.19212 1.425155 -4.190155 0.900861 8.733546 -170.629998 4.721713 -38.094723 141.308964 178.176109 -27.852611 -92.914375
-6.6507 61.0085 -0.4556 173.924831 17.399732 -178.776816 -12.432263 7.693782 180.0 -7.130066 5.64672 164.219878 -10.931387 38.173389 -138.144932 26.388568 39.468331 78.707707 10.262557 -0.656441 -7.300395 -6.152952 0.198877 -3.699016 -153.876644 10.021361 158.457055 131.552823 -17.717506 157.77685 168.16253 15.035061 111.848003 166.378988 -19.124412 145.336273 81.083549 -52.022835 32.596427 -105.981392 36.462553 76.674285 33.260226 -59.12034 -3.729531 10.65675 10.045782 -2.183611 -10.1596 25.775257 8.495877 -162.412418 -4.022391 147.053431 -1.741766 19.207334 3.633544 -153.442371 24.119732 164.43609 -11.2455 -28.354649 -14.407147 -50.29857 -60.976508 -42.343461 46.156584 62.991386 -48.805873 101.604067 5.237348 -102.408012 -109.549603 45.53721 105.429232 143.171163 71.380673 -123.533697 -167.612786 -22.822909 -86.613579 136.891984 17.764778 -58.840992 11.607689 10.99685 -7.731185 174.990098 -30.963052 -113.032722 158.333639 5.286432 -141.0752 45.423194 57.429416 -36.843587 68.674695 71.564996 -90.619648 -25.230364 62.070306 16.570194 124.90487 -32.724491 127.527552 1.445701 32.352219 -14.119283 -159.981473 70.966308 -12.528788 151.550098 -2.170557 -1.791825 -51.055055 65.453877 -26.173186 156.117386 -17.5658 -88.089414 0.101709 0.734181 -7.887428 3.535237 11.836333 -122.943722 -38.653513 -28.949708 -99.597843 -108.214478 77.603047 -2.428249
-6.646199999999999 60.923 -0.2568 173.599293 17.700367 -178.552867 -15.560744 9.85302 81.165785 -6.591548 -10.641853 -97.576255 -12.819664 23.055368 -37.524557 28.480312 -15.933544 -10.362955 11.460062 -0.76221 -7.585083 -6.418423 0.153935 -2.744885 -0.775881 0.255581 -0.130605 -17.268587 84.678385 84.949986 126.368371 -5.49717 158.8476 -165.357288 54.585716 141.488055 -171.702315 -6.998233 91.54132 -124.182616 18.508978 59.131891 -152.024807 -16.245459 122.838417 -166.038008 -30.014142 119.762939 -24.01008 42.520893 19.879959 -166.998732 -24.141342 146.596297 -2.869211 5.565407 -1.106829 -167.28022 -65.60236 167.418922 -97.577797 -46.553915 -99.328201 -143.685537 37.833934 -156.706473 -5.899714 -44.787661 6.133883 -63.792726 -3.050568 31.918505 -106.25709 -49.442589 -59.026834 -177.9078 17.493991 -149.288742 -84.701439 -49.064906 -38.545085 34.140818 -30.685262 35.103726 -3.097464 -10.959222 -0.134085 -9.044678 0.606131 6.683281 142.188319 38.71825 -128.045005 0.451644 0.066399 -3.34118 143.363594 1.603117 -179.99283 -17.946577 -24.679054 8.556493 -9.850159 24.156747 -10.791541 105.902592 -35.257426 105.696806 173.670874 72.161688 5.030143 159.122072 -1.387828 180.0 42.807378 -74.256838 135.530876 51.444015 -60.896467 151.664441 -107.268266 68.371788 -43.306518 73.243253 68.374331 38.445356 -25.240794 22.325049 85.041363 116.095221 -4.008166 -3.349053
